<svg width="1176" height="638" viewBox="0 0 1176 638" fill="none" xmlns="http://www.w3.org/2000/svg">
<g style="mix-blend-mode:screen">
<mask id="mask0_191_4477" style="mask-type:alpha" maskUnits="userSpaceOnUse" x="0" y="0" width="1176" height="638">
<ellipse cx="588" cy="319.125" rx="588" ry="318.5" fill="white"/>
</mask>
<g mask="url(#mask0_191_4477)">
<rect x="6.125" y="-30" width="8.16667" height="698.25" fill="#343435" fill-opacity="0.25"/>
<rect x="22.459" y="-30" width="8.16667" height="698.25" fill="#343435" fill-opacity="0.25"/>
<rect x="38.792" y="-30" width="8.16667" height="698.25" fill="#343435" fill-opacity="0.25"/>
<rect x="55.125" y="-30" width="8.16667" height="698.25" fill="#343435" fill-opacity="0.25"/>
<rect x="71.459" y="-30" width="8.16667" height="698.25" fill="#343435" fill-opacity="0.25"/>
<rect x="87.792" y="-30" width="8.16667" height="698.25" fill="#343435" fill-opacity="0.25"/>
<rect x="104.125" y="-30" width="8.16667" height="698.25" fill="#343435" fill-opacity="0.25"/>
<rect x="120.459" y="-30" width="8.16667" height="698.25" fill="#343435" fill-opacity="0.25"/>
<rect x="136.792" y="-30" width="8.16667" height="698.25" fill="#343435" fill-opacity="0.25"/>
<rect x="153.125" y="-30" width="8.16667" height="698.25" fill="#343435" fill-opacity="0.25"/>
<rect x="169.459" y="-30" width="8.16667" height="698.25" fill="#343435" fill-opacity="0.25"/>
<rect x="185.792" y="-30" width="8.16667" height="698.25" fill="#343435" fill-opacity="0.25"/>
<rect x="202.125" y="-30" width="8.16667" height="698.25" fill="#343435" fill-opacity="0.25"/>
<rect x="218.459" y="-30" width="8.16667" height="698.25" fill="#343435" fill-opacity="0.25"/>
<rect x="234.792" y="-30" width="8.16667" height="698.25" fill="#343435" fill-opacity="0.25"/>
<rect x="251.125" y="-30" width="8.16667" height="698.25" fill="#343435" fill-opacity="0.25"/>
<rect x="267.459" y="-30" width="8.16667" height="698.25" fill="#343435" fill-opacity="0.25"/>
<rect x="283.792" y="-30" width="8.16667" height="698.25" fill="#343435" fill-opacity="0.25"/>
<rect x="300.125" y="-30" width="8.16667" height="698.25" fill="#343435" fill-opacity="0.25"/>
<rect x="316.459" y="-30" width="8.16667" height="698.25" fill="#343435" fill-opacity="0.25"/>
<rect x="332.792" y="-30" width="8.16667" height="698.25" fill="#343435" fill-opacity="0.25"/>
<rect x="349.125" y="-30" width="8.16667" height="698.25" fill="#343435" fill-opacity="0.25"/>
<rect x="365.459" y="-30" width="8.16667" height="698.25" fill="#343435" fill-opacity="0.25"/>
<rect x="381.792" y="-30" width="8.16667" height="698.25" fill="#343435" fill-opacity="0.25"/>
<rect x="398.125" y="-30" width="8.16667" height="698.25" fill="#343435" fill-opacity="0.25"/>
<rect x="414.459" y="-30" width="8.16667" height="698.25" fill="#343435" fill-opacity="0.25"/>
<rect x="430.792" y="-30" width="8.16667" height="698.25" fill="#343435" fill-opacity="0.25"/>
<rect x="447.125" y="-30" width="8.16667" height="698.25" fill="#343435" fill-opacity="0.25"/>
<rect x="463.459" y="-30" width="8.16667" height="698.25" fill="#343435" fill-opacity="0.25"/>
<rect x="479.792" y="-30" width="8.16667" height="698.25" fill="#343435" fill-opacity="0.25"/>
<rect x="496.125" y="-30" width="8.16667" height="698.25" fill="#343435" fill-opacity="0.25"/>
<rect x="512.459" y="-30" width="8.16667" height="698.25" fill="#343435" fill-opacity="0.25"/>
<rect x="528.792" y="-30" width="8.16667" height="698.25" fill="#343435" fill-opacity="0.25"/>
<rect x="545.125" y="-30" width="8.16667" height="698.25" fill="#343435" fill-opacity="0.25"/>
<rect x="561.459" y="-30" width="8.16667" height="698.25" fill="#343435" fill-opacity="0.25"/>
<rect x="577.792" y="-30" width="8.16667" height="698.25" fill="#343435" fill-opacity="0.25"/>
<rect x="594.125" y="-30" width="8.16667" height="698.25" fill="#343435" fill-opacity="0.25"/>
<rect x="610.459" y="-30" width="8.16667" height="698.25" fill="#343435" fill-opacity="0.25"/>
<rect x="626.792" y="-30" width="8.16667" height="698.25" fill="#343435" fill-opacity="0.25"/>
<rect x="643.125" y="-30" width="8.16667" height="698.25" fill="#343435" fill-opacity="0.25"/>
<rect x="659.459" y="-30" width="8.16667" height="698.25" fill="#343435" fill-opacity="0.25"/>
<rect x="675.792" y="-30" width="8.16667" height="698.25" fill="#343435" fill-opacity="0.25"/>
<rect x="692.125" y="-30" width="8.16667" height="698.25" fill="#343435" fill-opacity="0.25"/>
<rect x="708.459" y="-30" width="8.16667" height="698.25" fill="#343435" fill-opacity="0.25"/>
<rect x="724.792" y="-30" width="8.16667" height="698.25" fill="#343435" fill-opacity="0.25"/>
<rect x="741.125" y="-30" width="8.16667" height="698.25" fill="#343435" fill-opacity="0.25"/>
<rect x="757.459" y="-30" width="8.16667" height="698.25" fill="#343435" fill-opacity="0.25"/>
<rect x="773.792" y="-30" width="8.16667" height="698.25" fill="#343435" fill-opacity="0.25"/>
<rect x="790.125" y="-30" width="8.16667" height="698.25" fill="#343435" fill-opacity="0.25"/>
<rect x="806.459" y="-30" width="8.16667" height="698.25" fill="#343435" fill-opacity="0.25"/>
<rect x="822.792" y="-30" width="8.16667" height="698.25" fill="#343435" fill-opacity="0.25"/>
<rect x="839.125" y="-30" width="8.16667" height="698.25" fill="#343435" fill-opacity="0.25"/>
<rect x="855.459" y="-30" width="8.16667" height="698.25" fill="#343435" fill-opacity="0.25"/>
<rect x="871.792" y="-30" width="8.16667" height="698.25" fill="#343435" fill-opacity="0.25"/>
<rect x="888.125" y="-30" width="8.16667" height="698.25" fill="#343435" fill-opacity="0.25"/>
<rect x="904.459" y="-30" width="8.16667" height="698.25" fill="#343435" fill-opacity="0.25"/>
<rect x="920.792" y="-30" width="8.16667" height="698.25" fill="#343435" fill-opacity="0.25"/>
<rect x="937.125" y="-30" width="8.16667" height="698.25" fill="#343435" fill-opacity="0.25"/>
<rect x="953.459" y="-30" width="8.16667" height="698.25" fill="#343435" fill-opacity="0.25"/>
<rect x="969.792" y="-30" width="8.16667" height="698.25" fill="#343435" fill-opacity="0.25"/>
<rect x="986.125" y="-30" width="8.16667" height="698.25" fill="#343435" fill-opacity="0.25"/>
<rect x="1002.46" y="-30" width="8.16667" height="698.25" fill="#343435" fill-opacity="0.25"/>
<rect x="1018.79" y="-30" width="8.16667" height="698.25" fill="#343435" fill-opacity="0.25"/>
<rect x="1035.12" y="-30" width="8.16667" height="698.25" fill="#343435" fill-opacity="0.25"/>
<rect x="1051.46" y="-30" width="8.16667" height="698.25" fill="#343435" fill-opacity="0.25"/>
<rect x="1067.79" y="-30" width="8.16667" height="698.25" fill="#343435" fill-opacity="0.25"/>
<rect x="1084.12" y="-30" width="8.16667" height="698.25" fill="#343435" fill-opacity="0.25"/>
<rect x="1100.46" y="-30" width="8.16667" height="698.25" fill="#343435" fill-opacity="0.25"/>
<rect x="1116.79" y="-30" width="8.16667" height="698.25" fill="#343435" fill-opacity="0.25"/>
<rect x="1133.12" y="-30" width="8.16667" height="698.25" fill="#343435" fill-opacity="0.25"/>
<rect x="1149.46" y="-30" width="8.16667" height="698.25" fill="#343435" fill-opacity="0.25"/>
<rect x="1165.79" y="-30" width="8.16667" height="698.25" fill="#343435" fill-opacity="0.25"/>
</g>
</g>
</svg>
